<svg id="Capa_1" enable-background="new 0 0 512 512" height="512" viewBox="0 0 512 512" width="512" xmlns="http://www.w3.org/2000/svg"><g><path d="m241.001 61h17.977c14.828-14.645 33.53-25.139 54.694-28.594 17.089-2.728 30.765-1.406 46.983 3.42-23.898-21.41-55.114-35.826-89.654-35.826h-60c-6.064 0-11.543 4.647-13.857 10.258-2.329 5.61-1.04 12.056 3.252 16.348l30 30c2.813 2.812 6.621 4.394 10.605 4.394z"/><path d="m483.946 180.707c6.284-1.26 11.074-6.372 11.924-12.715.85-6.357-2.432-12.539-8.159-15.41l-52.698-26.345c.308 3.265.989 6.42.989 9.763 0 21.083-6.573 41.041-17.756 57.847z"/><path d="m406.001 136c0-45.906-40.922-81.453-87.495-73.989-35.625 5.815-62.505 38.994-62.505 77.197 0 38.218-24.668 72.583-59.985 83.555-95.156 29.575-165.762 113.441-179.868 212.113-.615 4.307.674 8.672 3.516 11.953 2.856 3.281 6.987 5.171 11.337 5.171h60c74.443 0 135-61.557 135-136 0-8.291 6.709-15 15-15s15 6.709 15 15c0 55.798-27.911 106.123-70.43 136h10.43v45c0 8.291 6.709 15 15 15h60c8.291 0 15-6.709 15-15s-6.709-15-15-15h-45v-30h55.356c62.871 0 116.016-45.839 123.633-105.297 5.054-39.463-9.624-78.721-39.287-105.015-9.375-8.32-15.747-19.746-18.369-32.476 33.531-7.484 58.667-37.47 58.667-73.212zm-75 15c-8.284 0-15-6.716-15-15 0-8.286 6.716-15 15-15s15 6.714 15 15c0 8.284-6.716 15-15 15z"/></g></svg>